<mxfile host="app.diagrams.net" modified="2024-01-26T08:10:21.938Z" agent="Mozilla/5.0 (Windows NT 10.0; Win64; x64) AppleWebKit/537.36 (KHTML, like Gecko) Chrome/120.0.0.0 Safari/537.36" etag="Famx2dBCksW9lVA4w3po" version="23.0.2" type="google">
  <diagram id="hHb_tBzI-Hn1z5nBQ14c" name="Guild Federation">
    <mxGraphModel dx="1562" dy="871" grid="1" gridSize="10" guides="1" tooltips="1" connect="1" arrows="1" fold="1" page="1" pageScale="1" pageWidth="827" pageHeight="1169" math="0" shadow="0">
      <root>
        <mxCell id="0" />
        <mxCell id="1" parent="0" />
        <mxCell id="PomD5BG6CUfoa0DCS18P-41" value="" style="rounded=1;whiteSpace=wrap;html=1;fillColor=#dae8fc;strokeColor=#6c8ebf;glass=1;shadow=1;" parent="1" vertex="1">
          <mxGeometry x="10" y="150" width="730" height="610" as="geometry" />
        </mxCell>
        <mxCell id="PomD5BG6CUfoa0DCS18P-51" value="" style="rounded=1;whiteSpace=wrap;html=1;dashed=1;fillColor=default;dashPattern=1 1;opacity=30;" parent="1" vertex="1">
          <mxGeometry x="55" y="170" width="645" height="120" as="geometry" />
        </mxCell>
        <mxCell id="PomD5BG6CUfoa0DCS18P-43" value="" style="rounded=1;whiteSpace=wrap;html=1;dashed=1;fillColor=default;dashPattern=1 1;opacity=30;" parent="1" vertex="1">
          <mxGeometry x="50" y="300" width="560" height="250" as="geometry" />
        </mxCell>
        <mxCell id="PomD5BG6CUfoa0DCS18P-42" value="" style="rounded=1;whiteSpace=wrap;html=1;dashed=1;fillColor=default;dashPattern=1 1;opacity=30;" parent="1" vertex="1">
          <mxGeometry x="50" y="560" width="560" height="160" as="geometry" />
        </mxCell>
        <mxCell id="PomD5BG6CUfoa0DCS18P-19" style="edgeStyle=orthogonalEdgeStyle;rounded=0;orthogonalLoop=1;jettySize=auto;html=1;exitX=0.5;exitY=1;exitDx=0;exitDy=0;entryX=1;entryY=0.5;entryDx=0;entryDy=0;" parent="1" source="PomD5BG6CUfoa0DCS18P-8" target="PomD5BG6CUfoa0DCS18P-16" edge="1">
          <mxGeometry relative="1" as="geometry" />
        </mxCell>
        <mxCell id="PomD5BG6CUfoa0DCS18P-47" style="edgeStyle=orthogonalEdgeStyle;rounded=0;orthogonalLoop=1;jettySize=auto;html=1;exitX=1;exitY=0.5;exitDx=0;exitDy=0;entryX=1;entryY=0.5;entryDx=0;entryDy=0;" parent="1" source="PomD5BG6CUfoa0DCS18P-8" target="PomD5BG6CUfoa0DCS18P-37" edge="1">
          <mxGeometry relative="1" as="geometry" />
        </mxCell>
        <mxCell id="PomD5BG6CUfoa0DCS18P-58" style="edgeStyle=orthogonalEdgeStyle;rounded=0;orthogonalLoop=1;jettySize=auto;html=1;exitX=0.25;exitY=0;exitDx=0;exitDy=0;entryX=0.5;entryY=0;entryDx=0;entryDy=0;dashed=1;" parent="1" source="PomD5BG6CUfoa0DCS18P-8" target="PomD5BG6CUfoa0DCS18P-21" edge="1">
          <mxGeometry relative="1" as="geometry" />
        </mxCell>
        <mxCell id="PomD5BG6CUfoa0DCS18P-61" style="edgeStyle=orthogonalEdgeStyle;rounded=0;orthogonalLoop=1;jettySize=auto;html=1;exitX=1;exitY=0.25;exitDx=0;exitDy=0;entryX=0;entryY=0.5;entryDx=0;entryDy=0;entryPerimeter=0;" parent="1" source="PomD5BG6CUfoa0DCS18P-8" target="PomD5BG6CUfoa0DCS18P-53" edge="1">
          <mxGeometry relative="1" as="geometry" />
        </mxCell>
        <mxCell id="PomD5BG6CUfoa0DCS18P-8" value="Onboarding Office" style="rounded=1;whiteSpace=wrap;html=1;" parent="1" vertex="1">
          <mxGeometry x="440" y="205" width="120" height="60" as="geometry" />
        </mxCell>
        <mxCell id="PomD5BG6CUfoa0DCS18P-18" style="edgeStyle=orthogonalEdgeStyle;rounded=0;orthogonalLoop=1;jettySize=auto;html=1;exitX=0;exitY=0.5;exitDx=0;exitDy=0;entryX=1;entryY=0.5;entryDx=0;entryDy=0;" parent="1" source="PomD5BG6CUfoa0DCS18P-16" target="PomD5BG6CUfoa0DCS18P-17" edge="1">
          <mxGeometry relative="1" as="geometry">
            <mxPoint x="305" y="487" as="sourcePoint" />
          </mxGeometry>
        </mxCell>
        <mxCell id="PomD5BG6CUfoa0DCS18P-22" style="edgeStyle=orthogonalEdgeStyle;rounded=0;orthogonalLoop=1;jettySize=auto;html=1;exitX=0.5;exitY=0;exitDx=0;exitDy=0;" parent="1" source="PomD5BG6CUfoa0DCS18P-17" target="PomD5BG6CUfoa0DCS18P-21" edge="1">
          <mxGeometry relative="1" as="geometry" />
        </mxCell>
        <mxCell id="PomD5BG6CUfoa0DCS18P-20" value="registers" style="text;html=1;strokeColor=none;fillColor=none;align=center;verticalAlign=middle;whiteSpace=wrap;rounded=0;dashed=1;" parent="1" vertex="1">
          <mxGeometry x="500" y="420" width="60" height="30" as="geometry" />
        </mxCell>
        <mxCell id="PomD5BG6CUfoa0DCS18P-24" style="edgeStyle=orthogonalEdgeStyle;rounded=0;orthogonalLoop=1;jettySize=auto;html=1;exitX=0;exitY=0.5;exitDx=0;exitDy=0;entryX=0;entryY=0.25;entryDx=0;entryDy=0;" parent="1" source="PomD5BG6CUfoa0DCS18P-21" target="PomD5BG6CUfoa0DCS18P-17" edge="1">
          <mxGeometry relative="1" as="geometry" />
        </mxCell>
        <mxCell id="PomD5BG6CUfoa0DCS18P-27" style="edgeStyle=orthogonalEdgeStyle;rounded=0;orthogonalLoop=1;jettySize=auto;html=1;exitX=1;exitY=0.5;exitDx=0;exitDy=0;entryX=0.5;entryY=0;entryDx=0;entryDy=0;" parent="1" source="PomD5BG6CUfoa0DCS18P-21" target="PomD5BG6CUfoa0DCS18P-16" edge="1">
          <mxGeometry relative="1" as="geometry" />
        </mxCell>
        <mxCell id="PomD5BG6CUfoa0DCS18P-21" value="Issuance Service" style="rounded=1;whiteSpace=wrap;html=1;" parent="1" vertex="1">
          <mxGeometry x="180" y="200" width="120" height="60" as="geometry" />
        </mxCell>
        <mxCell id="PomD5BG6CUfoa0DCS18P-25" value="requests" style="text;html=1;strokeColor=none;fillColor=none;align=center;verticalAlign=middle;whiteSpace=wrap;rounded=0;dashed=1;" parent="1" vertex="1">
          <mxGeometry x="240" y="400" width="60" height="30" as="geometry" />
        </mxCell>
        <mxCell id="PomD5BG6CUfoa0DCS18P-26" value="issues&lt;br&gt;Principal VC" style="text;html=1;strokeColor=none;fillColor=none;align=center;verticalAlign=middle;whiteSpace=wrap;rounded=0;dashed=1;" parent="1" vertex="1">
          <mxGeometry x="156" y="390" width="60" height="30" as="geometry" />
        </mxCell>
        <mxCell id="PomD5BG6CUfoa0DCS18P-28" value="issues&lt;br&gt;Participant&lt;br&gt;VC" style="text;html=1;strokeColor=none;fillColor=none;align=center;verticalAlign=middle;whiteSpace=wrap;rounded=0;dashed=1;" parent="1" vertex="1">
          <mxGeometry x="404" y="394" width="60" height="30" as="geometry" />
        </mxCell>
        <mxCell id="PomD5BG6CUfoa0DCS18P-33" value="" style="group;fillColor=default;opacity=40;" parent="1" connectable="0" vertex="1">
          <mxGeometry x="370" y="437" width="70" height="100" as="geometry" />
        </mxCell>
        <mxCell id="PomD5BG6CUfoa0DCS18P-3" value="Participant" style="shape=umlActor;verticalLabelPosition=bottom;verticalAlign=top;html=1;outlineConnect=0;" parent="PomD5BG6CUfoa0DCS18P-33" vertex="1">
          <mxGeometry x="20" y="13" width="30" height="60" as="geometry" />
        </mxCell>
        <mxCell id="PomD5BG6CUfoa0DCS18P-16" value="" style="rounded=1;whiteSpace=wrap;html=1;dashed=1;fillColor=none;" parent="PomD5BG6CUfoa0DCS18P-33" vertex="1">
          <mxGeometry width="70" height="100" as="geometry" />
        </mxCell>
        <mxCell id="PomD5BG6CUfoa0DCS18P-34" value="" style="group;fillColor=default;opacity=50;" parent="1" connectable="0" vertex="1">
          <mxGeometry x="205" y="437" width="70" height="100" as="geometry" />
        </mxCell>
        <mxCell id="PomD5BG6CUfoa0DCS18P-12" value="Principal" style="shape=umlActor;verticalLabelPosition=bottom;verticalAlign=top;html=1;outlineConnect=0;dashed=1;fillColor=none;" parent="PomD5BG6CUfoa0DCS18P-34" vertex="1">
          <mxGeometry x="20" y="13" width="30" height="60" as="geometry" />
        </mxCell>
        <mxCell id="PomD5BG6CUfoa0DCS18P-17" value="" style="rounded=1;whiteSpace=wrap;html=1;dashed=1;fillColor=none;" parent="PomD5BG6CUfoa0DCS18P-34" vertex="1">
          <mxGeometry width="70" height="100" as="geometry" />
        </mxCell>
        <mxCell id="PomD5BG6CUfoa0DCS18P-35" value="" style="group;fillColor=default;opacity=40;" parent="1" connectable="0" vertex="1">
          <mxGeometry x="370" y="598" width="70" height="100" as="geometry" />
        </mxCell>
        <mxCell id="PomD5BG6CUfoa0DCS18P-36" value="Participant" style="shape=umlActor;verticalLabelPosition=bottom;verticalAlign=top;html=1;outlineConnect=0;" parent="PomD5BG6CUfoa0DCS18P-35" vertex="1">
          <mxGeometry x="20" y="13" width="30" height="60" as="geometry" />
        </mxCell>
        <mxCell id="PomD5BG6CUfoa0DCS18P-37" value="" style="rounded=1;whiteSpace=wrap;html=1;dashed=1;fillColor=none;" parent="PomD5BG6CUfoa0DCS18P-35" vertex="1">
          <mxGeometry width="70" height="100" as="geometry" />
        </mxCell>
        <mxCell id="PomD5BG6CUfoa0DCS18P-64" style="edgeStyle=orthogonalEdgeStyle;rounded=0;orthogonalLoop=1;jettySize=auto;html=1;exitX=0.5;exitY=1;exitDx=0;exitDy=0;entryX=0.5;entryY=1;entryDx=0;entryDy=0;entryPerimeter=0;" parent="1" source="PomD5BG6CUfoa0DCS18P-38" target="PomD5BG6CUfoa0DCS18P-53" edge="1">
          <mxGeometry relative="1" as="geometry">
            <Array as="points">
              <mxPoint x="140" y="730" />
              <mxPoint x="660" y="730" />
            </Array>
          </mxGeometry>
        </mxCell>
        <mxCell id="_rNz-TFiKL65JGV99hlq-1" style="edgeStyle=orthogonalEdgeStyle;rounded=0;orthogonalLoop=1;jettySize=auto;html=1;exitX=1;exitY=0.25;exitDx=0;exitDy=0;entryX=0;entryY=0.75;entryDx=0;entryDy=0;dashed=1;" parent="1" source="PomD5BG6CUfoa0DCS18P-38" target="PomD5BG6CUfoa0DCS18P-16" edge="1">
          <mxGeometry relative="1" as="geometry" />
        </mxCell>
        <mxCell id="PomD5BG6CUfoa0DCS18P-38" value="Services" style="rounded=1;whiteSpace=wrap;html=1;" parent="1" vertex="1">
          <mxGeometry x="80" y="618" width="120" height="60" as="geometry" />
        </mxCell>
        <mxCell id="PomD5BG6CUfoa0DCS18P-44" style="edgeStyle=orthogonalEdgeStyle;rounded=0;orthogonalLoop=1;jettySize=auto;html=1;exitX=0;exitY=0.75;exitDx=0;exitDy=0;entryX=0.5;entryY=0;entryDx=0;entryDy=0;" parent="1" source="PomD5BG6CUfoa0DCS18P-17" target="PomD5BG6CUfoa0DCS18P-38" edge="1">
          <mxGeometry relative="1" as="geometry" />
        </mxCell>
        <mxCell id="PomD5BG6CUfoa0DCS18P-45" value="uses" style="text;html=1;strokeColor=none;fillColor=none;align=center;verticalAlign=middle;whiteSpace=wrap;rounded=0;dashed=1;" parent="1" vertex="1">
          <mxGeometry x="140" y="490" width="60" height="30" as="geometry" />
        </mxCell>
        <mxCell id="PomD5BG6CUfoa0DCS18P-48" value="registers" style="text;html=1;strokeColor=none;fillColor=none;align=center;verticalAlign=middle;whiteSpace=wrap;rounded=0;dashed=1;" parent="1" vertex="1">
          <mxGeometry x="500" y="618" width="60" height="30" as="geometry" />
        </mxCell>
        <mxCell id="PomD5BG6CUfoa0DCS18P-53" value="Trust&lt;br&gt;List" style="shape=cylinder3;whiteSpace=wrap;html=1;boundedLbl=1;backgroundOutline=1;size=15;dashed=1;dashPattern=1 1;fillColor=#fff2cc;strokeColor=#d6b656;" parent="1" vertex="1">
          <mxGeometry x="630" y="180" width="60" height="80" as="geometry" />
        </mxCell>
        <mxCell id="PomD5BG6CUfoa0DCS18P-56" style="edgeStyle=orthogonalEdgeStyle;rounded=0;orthogonalLoop=1;jettySize=auto;html=1;exitX=1;exitY=0.25;exitDx=0;exitDy=0;entryX=0.25;entryY=1;entryDx=0;entryDy=0;" parent="1" source="PomD5BG6CUfoa0DCS18P-16" target="PomD5BG6CUfoa0DCS18P-8" edge="1">
          <mxGeometry relative="1" as="geometry" />
        </mxCell>
        <mxCell id="PomD5BG6CUfoa0DCS18P-57" value="register&lt;br&gt;did" style="text;html=1;strokeColor=none;fillColor=none;align=center;verticalAlign=middle;whiteSpace=wrap;rounded=0;dashed=1;" parent="1" vertex="1">
          <mxGeometry x="416" y="336" width="60" height="30" as="geometry" />
        </mxCell>
        <mxCell id="PomD5BG6CUfoa0DCS18P-59" value="whitelist participant" style="text;html=1;strokeColor=none;fillColor=none;align=center;verticalAlign=middle;whiteSpace=wrap;rounded=0;dashed=1;" parent="1" vertex="1">
          <mxGeometry x="360" y="180" width="80" height="30" as="geometry" />
        </mxCell>
        <mxCell id="PomD5BG6CUfoa0DCS18P-60" value="whitelist participant" style="text;html=1;strokeColor=none;fillColor=none;align=center;verticalAlign=middle;whiteSpace=wrap;rounded=0;dashed=1;" parent="1" vertex="1">
          <mxGeometry x="553" y="187" width="80" height="30" as="geometry" />
        </mxCell>
        <mxCell id="PomD5BG6CUfoa0DCS18P-62" style="edgeStyle=orthogonalEdgeStyle;rounded=0;orthogonalLoop=1;jettySize=auto;html=1;exitX=0;exitY=0.5;exitDx=0;exitDy=0;entryX=1;entryY=0.5;entryDx=0;entryDy=0;" parent="1" source="PomD5BG6CUfoa0DCS18P-37" target="PomD5BG6CUfoa0DCS18P-38" edge="1">
          <mxGeometry relative="1" as="geometry" />
        </mxCell>
        <mxCell id="PomD5BG6CUfoa0DCS18P-63" value="provides" style="text;html=1;strokeColor=none;fillColor=none;align=center;verticalAlign=middle;whiteSpace=wrap;rounded=0;dashed=1;" parent="1" vertex="1">
          <mxGeometry x="260" y="648" width="60" height="30" as="geometry" />
        </mxCell>
        <mxCell id="PomD5BG6CUfoa0DCS18P-65" value="relies on" style="text;html=1;strokeColor=none;fillColor=none;align=center;verticalAlign=middle;whiteSpace=wrap;rounded=0;dashed=1;" parent="1" vertex="1">
          <mxGeometry x="260" y="725" width="60" height="30" as="geometry" />
        </mxCell>
        <mxCell id="PomD5BG6CUfoa0DCS18P-67" value="issues&lt;br&gt;Principal VC" style="text;html=1;strokeColor=none;fillColor=none;align=center;verticalAlign=middle;whiteSpace=wrap;rounded=0;dashed=1;" parent="1" vertex="1">
          <mxGeometry x="293" y="450" width="60" height="30" as="geometry" />
        </mxCell>
        <mxCell id="PomD5BG6CUfoa0DCS18P-68" value="&lt;b&gt;Federation &amp;nbsp;Governance&lt;/b&gt;" style="text;html=1;strokeColor=none;fillColor=none;align=center;verticalAlign=middle;whiteSpace=wrap;rounded=0;shadow=1;glass=1;dashed=1;dashPattern=1 1;opacity=50;" parent="1" vertex="1">
          <mxGeometry x="70" y="180" width="60" height="30" as="geometry" />
        </mxCell>
        <mxCell id="PomD5BG6CUfoa0DCS18P-69" value="&lt;b&gt;GUILD&lt;br&gt;&lt;/b&gt;" style="text;html=1;strokeColor=none;fillColor=none;align=center;verticalAlign=middle;whiteSpace=wrap;rounded=0;shadow=1;glass=1;dashed=1;dashPattern=1 1;opacity=50;rotation=-90;" parent="1" vertex="1">
          <mxGeometry x="-5" y="394" width="60" height="30" as="geometry" />
        </mxCell>
        <mxCell id="PomD5BG6CUfoa0DCS18P-70" value="&lt;b&gt;Participant&lt;br&gt;&lt;/b&gt;" style="text;html=1;strokeColor=none;fillColor=none;align=center;verticalAlign=middle;whiteSpace=wrap;rounded=0;shadow=1;glass=1;dashed=1;dashPattern=1 1;opacity=50;rotation=0;" parent="1" vertex="1">
          <mxGeometry x="60" y="306" width="60" height="30" as="geometry" />
        </mxCell>
        <mxCell id="PomD5BG6CUfoa0DCS18P-71" value="&lt;b&gt;Participant&lt;br&gt;&lt;/b&gt;" style="text;html=1;strokeColor=none;fillColor=none;align=center;verticalAlign=middle;whiteSpace=wrap;rounded=0;shadow=1;glass=1;dashed=1;dashPattern=1 1;opacity=50;rotation=0;" parent="1" vertex="1">
          <mxGeometry x="60" y="563" width="60" height="30" as="geometry" />
        </mxCell>
        <mxCell id="PomD5BG6CUfoa0DCS18P-72" style="edgeStyle=orthogonalEdgeStyle;rounded=0;orthogonalLoop=1;jettySize=auto;html=1;exitX=0.5;exitY=0;exitDx=0;exitDy=0;entryX=0.5;entryY=1;entryDx=0;entryDy=0;dashed=1;" parent="1" source="PomD5BG6CUfoa0DCS18P-37" target="PomD5BG6CUfoa0DCS18P-16" edge="1">
          <mxGeometry relative="1" as="geometry" />
        </mxCell>
        <mxCell id="PomD5BG6CUfoa0DCS18P-73" value="knows from&lt;br&gt;trustlist" style="text;html=1;strokeColor=none;fillColor=none;align=center;verticalAlign=middle;whiteSpace=wrap;rounded=0;shadow=1;glass=1;dashed=1;dashPattern=1 1;opacity=50;" parent="1" vertex="1">
          <mxGeometry x="400" y="563" width="60" height="30" as="geometry" />
        </mxCell>
        <mxCell id="_rNz-TFiKL65JGV99hlq-2" value="relies on" style="text;html=1;strokeColor=none;fillColor=none;align=center;verticalAlign=middle;whiteSpace=wrap;rounded=0;dashed=1;" parent="1" vertex="1">
          <mxGeometry x="282" y="563" width="60" height="30" as="geometry" />
        </mxCell>
      </root>
    </mxGraphModel>
  </diagram>
</mxfile>
